# Blender 4.0.2
# www.blender.org
mtllib fence.mtl
o Cube
v 0.000000 2.000000 -1.000000
v 0.000000 -2.000000 -1.000000
v 1.000000 2.000000 0.000000
v 1.000000 -2.000000 0.000000
v -1.000000 2.000000 0.000000
v -1.000000 -2.000000 0.000000
v 0.000000 2.000000 1.000000
v 0.000000 -2.000000 1.000000
vn 0.7071 -0.0000 0.7071
vn -0.7071 -0.0000 0.7071
vn 0.7071 -0.0000 -0.7071
vn -0.7071 -0.0000 -0.7071
vt 1.000000 0.000000
vt 1.000000 1.000000
vt 0.000000 1.000000
vt 0.000000 0.000000
s 0
g Cube_Material
usemtl Material
f 4/1/1 3/2/1 7/3/1 8/4/1
f 8/1/2 7/2/2 5/3/2 6/4/2
f 2/1/3 1/2/3 3/3/3 4/4/3
f 6/1/4 5/2/4 1/3/4 2/4/4
