<?xml version="1.0" encoding="UTF-8" ?>
<svg version="1.1" width="20" height="20" xmlns="http://www.w3.org/2000/svg" shape-rendering="crispEdges">
<rect x="2" y="1" width="1" height="1" fill="#000000" />
<rect x="3" y="1" width="1" height="1" fill="#000000" />
<rect x="4" y="1" width="1" height="1" fill="#000000" />
<rect x="10" y="1" width="1" height="1" fill="#000000" />
<rect x="11" y="1" width="1" height="1" fill="#000000" />
<rect x="12" y="1" width="1" height="1" fill="#000000" />
<rect x="2" y="2" width="1" height="1" fill="#000000" />
<rect x="3" y="2" width="1" height="1" fill="#C57835" />
<rect x="4" y="2" width="1" height="1" fill="#C57835" />
<rect x="5" y="2" width="1" height="1" fill="#000000" />
<rect x="6" y="2" width="1" height="1" fill="#000000" />
<rect x="7" y="2" width="1" height="1" fill="#000000" />
<rect x="8" y="2" width="1" height="1" fill="#000000" />
<rect x="9" y="2" width="1" height="1" fill="#000000" />
<rect x="10" y="2" width="1" height="1" fill="#C57835" />
<rect x="11" y="2" width="1" height="1" fill="#C57835" />
<rect x="12" y="2" width="1" height="1" fill="#000000" />
<rect x="2" y="3" width="1" height="1" fill="#000000" />
<rect x="3" y="3" width="1" height="1" fill="#8D4830" />
<rect x="4" y="3" width="1" height="1" fill="#8D4830" />
<rect x="5" y="3" width="1" height="1" fill="#C57835" />
<rect x="6" y="3" width="1" height="1" fill="#8D4830" />
<rect x="7" y="3" width="1" height="1" fill="#C57835" />
<rect x="8" y="3" width="1" height="1" fill="#8D4830" />
<rect x="9" y="3" width="1" height="1" fill="#C57835" />
<rect x="10" y="3" width="1" height="1" fill="#8D4830" />
<rect x="11" y="3" width="1" height="1" fill="#8D4830" />
<rect x="12" y="3" width="1" height="1" fill="#000000" />
<rect x="2" y="4" width="1" height="1" fill="#000000" />
<rect x="3" y="4" width="1" height="1" fill="#8D4830" />
<rect x="4" y="4" width="1" height="1" fill="#C57835" />
<rect x="5" y="4" width="1" height="1" fill="#C57835" />
<rect x="6" y="4" width="1" height="1" fill="#8D4830" />
<rect x="7" y="4" width="1" height="1" fill="#C57835" />
<rect x="8" y="4" width="1" height="1" fill="#8D4830" />
<rect x="9" y="4" width="1" height="1" fill="#C57835" />
<rect x="10" y="4" width="1" height="1" fill="#C57835" />
<rect x="11" y="4" width="1" height="1" fill="#8D4830" />
<rect x="12" y="4" width="1" height="1" fill="#000000" />
<rect x="2" y="5" width="1" height="1" fill="#000000" />
<rect x="3" y="5" width="1" height="1" fill="#C57835" />
<rect x="4" y="5" width="1" height="1" fill="#C57835" />
<rect x="5" y="5" width="1" height="1" fill="#C57835" />
<rect x="6" y="5" width="1" height="1" fill="#C57835" />
<rect x="7" y="5" width="1" height="1" fill="#C57835" />
<rect x="8" y="5" width="1" height="1" fill="#C57835" />
<rect x="9" y="5" width="1" height="1" fill="#C57835" />
<rect x="10" y="5" width="1" height="1" fill="#C57835" />
<rect x="11" y="5" width="1" height="1" fill="#C57835" />
<rect x="12" y="5" width="1" height="1" fill="#000000" />
<rect x="1" y="6" width="1" height="1" fill="#000000" />
<rect x="2" y="6" width="1" height="1" fill="#000000" />
<rect x="3" y="6" width="1" height="1" fill="#C57835" />
<rect x="4" y="6" width="1" height="1" fill="#C57835" />
<rect x="5" y="6" width="1" height="1" fill="#000000" />
<rect x="6" y="6" width="1" height="1" fill="#E5EFEF" />
<rect x="7" y="6" width="1" height="1" fill="#C57835" />
<rect x="8" y="6" width="1" height="1" fill="#000000" />
<rect x="9" y="6" width="1" height="1" fill="#E5EFEF" />
<rect x="10" y="6" width="1" height="1" fill="#C57835" />
<rect x="11" y="6" width="1" height="1" fill="#C57835" />
<rect x="12" y="6" width="1" height="1" fill="#000000" />
<rect x="13" y="6" width="1" height="1" fill="#000000" />
<rect x="2" y="7" width="1" height="1" fill="#000000" />
<rect x="3" y="7" width="1" height="1" fill="#C57835" />
<rect x="4" y="7" width="1" height="1" fill="#C57835" />
<rect x="5" y="7" width="1" height="1" fill="#000000" />
<rect x="6" y="7" width="1" height="1" fill="#000000" />
<rect x="7" y="7" width="1" height="1" fill="#C57835" />
<rect x="8" y="7" width="1" height="1" fill="#000000" />
<rect x="9" y="7" width="1" height="1" fill="#000000" />
<rect x="10" y="7" width="1" height="1" fill="#C57835" />
<rect x="11" y="7" width="1" height="1" fill="#C57835" />
<rect x="12" y="7" width="1" height="1" fill="#000000" />
<rect x="1" y="8" width="1" height="1" fill="#000000" />
<rect x="2" y="8" width="1" height="1" fill="#000000" />
<rect x="3" y="8" width="1" height="1" fill="#000000" />
<rect x="4" y="8" width="1" height="1" fill="#000000" />
<rect x="5" y="8" width="1" height="1" fill="#C57835" />
<rect x="6" y="8" width="1" height="1" fill="#C57835" />
<rect x="7" y="8" width="1" height="1" fill="#EDAAA3" />
<rect x="8" y="8" width="1" height="1" fill="#C57835" />
<rect x="9" y="8" width="1" height="1" fill="#C57835" />
<rect x="10" y="8" width="1" height="1" fill="#000000" />
<rect x="11" y="8" width="1" height="1" fill="#000000" />
<rect x="12" y="8" width="1" height="1" fill="#000000" />
<rect x="13" y="8" width="1" height="1" fill="#000000" />
<rect x="1" y="9" width="1" height="1" fill="#000000" />
<rect x="2" y="9" width="1" height="1" fill="#94AD39" />
<rect x="3" y="9" width="1" height="1" fill="#C2D64F" />
<rect x="4" y="9" width="1" height="1" fill="#94AD39" />
<rect x="5" y="9" width="1" height="1" fill="#000000" />
<rect x="6" y="9" width="1" height="1" fill="#E47259" />
<rect x="7" y="9" width="1" height="1" fill="#000000" />
<rect x="8" y="9" width="1" height="1" fill="#E47259" />
<rect x="9" y="9" width="1" height="1" fill="#000000" />
<rect x="10" y="9" width="1" height="1" fill="#94AD39" />
<rect x="11" y="9" width="1" height="1" fill="#C2D64F" />
<rect x="12" y="9" width="1" height="1" fill="#BAC9CD" />
<rect x="13" y="9" width="1" height="1" fill="#000000" />
<rect x="1" y="10" width="1" height="1" fill="#000000" />
<rect x="2" y="10" width="1" height="1" fill="#94AD39" />
<rect x="3" y="10" width="1" height="1" fill="#94AD39" />
<rect x="4" y="10" width="1" height="1" fill="#C33C40" />
<rect x="5" y="10" width="1" height="1" fill="#94AD39" />
<rect x="6" y="10" width="1" height="1" fill="#000000" />
<rect x="7" y="10" width="1" height="1" fill="#94AD39" />
<rect x="8" y="10" width="1" height="1" fill="#000000" />
<rect x="9" y="10" width="1" height="1" fill="#94AD39" />
<rect x="10" y="10" width="1" height="1" fill="#94AD39" />
<rect x="11" y="10" width="1" height="1" fill="#94AD39" />
<rect x="12" y="10" width="1" height="1" fill="#8D99A4" />
<rect x="13" y="10" width="1" height="1" fill="#000000" />
<rect x="1" y="11" width="1" height="1" fill="#000000" />
<rect x="2" y="11" width="1" height="1" fill="#94AD39" />
<rect x="3" y="11" width="1" height="1" fill="#94AD39" />
<rect x="4" y="11" width="1" height="1" fill="#C2D64F" />
<rect x="5" y="11" width="1" height="1" fill="#C33C40" />
<rect x="6" y="11" width="1" height="1" fill="#94AD39" />
<rect x="7" y="11" width="1" height="1" fill="#C2D64F" />
<rect x="8" y="11" width="1" height="1" fill="#94AD39" />
<rect x="9" y="11" width="1" height="1" fill="#C2D64F" />
<rect x="10" y="11" width="1" height="1" fill="#94AD39" />
<rect x="11" y="11" width="1" height="1" fill="#8D99A4" />
<rect x="12" y="11" width="1" height="1" fill="#696F80" />
<rect x="13" y="11" width="1" height="1" fill="#000000" />
<rect x="17" y="11" width="1" height="1" fill="#000000" />
<rect x="18" y="11" width="1" height="1" fill="#000000" />
<rect x="2" y="12" width="1" height="1" fill="#000000" />
<rect x="3" y="12" width="1" height="1" fill="#94AD39" />
<rect x="4" y="12" width="1" height="1" fill="#5F7132" />
<rect x="5" y="12" width="1" height="1" fill="#000000" />
<rect x="6" y="12" width="1" height="1" fill="#000000" />
<rect x="7" y="12" width="1" height="1" fill="#000000" />
<rect x="8" y="12" width="1" height="1" fill="#000000" />
<rect x="9" y="12" width="1" height="1" fill="#000000" />
<rect x="10" y="12" width="1" height="1" fill="#5F7132" />
<rect x="11" y="12" width="1" height="1" fill="#696F80" />
<rect x="12" y="12" width="1" height="1" fill="#000000" />
<rect x="15" y="12" width="1" height="1" fill="#000000" />
<rect x="16" y="12" width="1" height="1" fill="#000000" />
<rect x="17" y="12" width="1" height="1" fill="#E5EFEF" />
<rect x="18" y="12" width="1" height="1" fill="#E5EFEF" />
<rect x="19" y="12" width="1" height="1" fill="#000000" />
<rect x="1" y="13" width="1" height="1" fill="#000000" />
<rect x="2" y="13" width="1" height="1" fill="#000000" />
<rect x="3" y="13" width="1" height="1" fill="#000000" />
<rect x="4" y="13" width="1" height="1" fill="#000000" />
<rect x="5" y="13" width="1" height="1" fill="#C57835" />
<rect x="6" y="13" width="1" height="1" fill="#C57835" />
<rect x="7" y="13" width="1" height="1" fill="#C57835" />
<rect x="8" y="13" width="1" height="1" fill="#C57835" />
<rect x="9" y="13" width="1" height="1" fill="#C57835" />
<rect x="10" y="13" width="1" height="1" fill="#000000" />
<rect x="11" y="13" width="1" height="1" fill="#000000" />
<rect x="12" y="13" width="1" height="1" fill="#8D4830" />
<rect x="13" y="13" width="1" height="1" fill="#000000" />
<rect x="14" y="13" width="1" height="1" fill="#000000" />
<rect x="15" y="13" width="1" height="1" fill="#C57835" />
<rect x="16" y="13" width="1" height="1" fill="#8D4830" />
<rect x="17" y="13" width="1" height="1" fill="#E5EFEF" />
<rect x="18" y="13" width="1" height="1" fill="#E5EFEF" />
<rect x="19" y="13" width="1" height="1" fill="#000000" />
<rect x="1" y="14" width="1" height="1" fill="#000000" />
<rect x="2" y="14" width="1" height="1" fill="#8D4830" />
<rect x="3" y="14" width="1" height="1" fill="#C57835" />
<rect x="4" y="14" width="1" height="1" fill="#C57835" />
<rect x="5" y="14" width="1" height="1" fill="#C57835" />
<rect x="6" y="14" width="1" height="1" fill="#C57835" />
<rect x="7" y="14" width="1" height="1" fill="#C57835" />
<rect x="8" y="14" width="1" height="1" fill="#C57835" />
<rect x="9" y="14" width="1" height="1" fill="#C57835" />
<rect x="10" y="14" width="1" height="1" fill="#C57835" />
<rect x="11" y="14" width="1" height="1" fill="#C57835" />
<rect x="12" y="14" width="1" height="1" fill="#8D4830" />
<rect x="13" y="14" width="1" height="1" fill="#000000" />
<rect x="14" y="14" width="1" height="1" fill="#C57835" />
<rect x="15" y="14" width="1" height="1" fill="#8D4830" />
<rect x="16" y="14" width="1" height="1" fill="#C57835" />
<rect x="17" y="14" width="1" height="1" fill="#000000" />
<rect x="18" y="14" width="1" height="1" fill="#000000" />
<rect x="1" y="15" width="1" height="1" fill="#000000" />
<rect x="2" y="15" width="1" height="1" fill="#C57835" />
<rect x="3" y="15" width="1" height="1" fill="#3F333B" />
<rect x="4" y="15" width="1" height="1" fill="#C57835" />
<rect x="5" y="15" width="1" height="1" fill="#C57835" />
<rect x="6" y="15" width="1" height="1" fill="#3F333B" />
<rect x="7" y="15" width="1" height="1" fill="#C57835" />
<rect x="8" y="15" width="1" height="1" fill="#3F333B" />
<rect x="9" y="15" width="1" height="1" fill="#C57835" />
<rect x="10" y="15" width="1" height="1" fill="#C57835" />
<rect x="11" y="15" width="1" height="1" fill="#3F333B" />
<rect x="12" y="15" width="1" height="1" fill="#C57835" />
<rect x="13" y="15" width="1" height="1" fill="#000000" />
<rect x="14" y="15" width="1" height="1" fill="#000000" />
<rect x="15" y="15" width="1" height="1" fill="#000000" />
<rect x="16" y="15" width="1" height="1" fill="#000000" />
<rect x="1" y="16" width="1" height="1" fill="#000000" />
<rect x="2" y="16" width="1" height="1" fill="#C57835" />
<rect x="3" y="16" width="1" height="1" fill="#C57835" />
<rect x="4" y="16" width="1" height="1" fill="#3F333B" />
<rect x="5" y="16" width="1" height="1" fill="#C57835" />
<rect x="6" y="16" width="1" height="1" fill="#3F333B" />
<rect x="7" y="16" width="1" height="1" fill="#C57835" />
<rect x="8" y="16" width="1" height="1" fill="#3F333B" />
<rect x="9" y="16" width="1" height="1" fill="#C57835" />
<rect x="10" y="16" width="1" height="1" fill="#3F333B" />
<rect x="11" y="16" width="1" height="1" fill="#C57835" />
<rect x="12" y="16" width="1" height="1" fill="#C57835" />
<rect x="13" y="16" width="1" height="1" fill="#000000" />
<rect x="2" y="17" width="1" height="1" fill="#000000" />
<rect x="3" y="17" width="1" height="1" fill="#C57835" />
<rect x="4" y="17" width="1" height="1" fill="#3F333B" />
<rect x="5" y="17" width="1" height="1" fill="#C57835" />
<rect x="6" y="17" width="1" height="1" fill="#3F333B" />
<rect x="7" y="17" width="1" height="1" fill="#C57835" />
<rect x="8" y="17" width="1" height="1" fill="#3F333B" />
<rect x="9" y="17" width="1" height="1" fill="#C57835" />
<rect x="10" y="17" width="1" height="1" fill="#3F333B" />
<rect x="11" y="17" width="1" height="1" fill="#C57835" />
<rect x="12" y="17" width="1" height="1" fill="#000000" />
<rect x="3" y="18" width="1" height="1" fill="#000000" />
<rect x="4" y="18" width="1" height="1" fill="#000000" />
<rect x="5" y="18" width="1" height="1" fill="#000000" />
<rect x="6" y="18" width="1" height="1" fill="#000000" />
<rect x="7" y="18" width="1" height="1" fill="#000000" />
<rect x="8" y="18" width="1" height="1" fill="#000000" />
<rect x="9" y="18" width="1" height="1" fill="#000000" />
<rect x="10" y="18" width="1" height="1" fill="#000000" />
<rect x="11" y="18" width="1" height="1" fill="#000000" />
</svg>